<svg xmlns="http://www.w3.org/2000/svg" xmlns:xlink="http://www.w3.org/1999/xlink" xmlns:h5="http://www.w3.org/1999/xhtml" viewBox="0 0 590.4533333333334 206.04" width="590.4533333333334pt" height="206.04pt">
  <g>
    <g transform="translate(0 0)">
      <g class="typst-group">
        <g>
          <g transform="translate(0 117.25599999999999)">
            <g class="typst-text" transform="scale(1, -1)">
              <path d="M 101.2 -36 L 111.119995 -9.92 L 108.399994 -9.92 C 106.88 -13.92 104.32 -17.279999 100.64 -20 C 91.6 -26.72 80 -28.48 63.28 -28.48 L 16 -28.48 L 56 18.56 C 56.559998 19.119999 56.8 19.68 56.8 20.08 L 19.52 71.52 L 62.48 71.52 C 77.6 71.52 90.159996 69.6 98.4 64.32 C 103.2 61.28 106.56 57.52 108.479996 53.039997 L 111.119995 53.039997 L 101.2 76 L 7.04 76 C 5.6 76 4.7999997 75.759995 4.56 75.28 C 4.48 75.04 4.48 74.08 4.48 72.4 L 46.48 14.96 L 5.44 -33.2 C 4.88 -33.84 4.56 -34.399998 4.56 -34.8 C 4.56 -35.6 5.3599997 -36 7.04 -36 Z " fill="#000000" fill-rule="nonzero"/>
            </g>
          </g>
          <g transform="translate(37.992 24.695999999999998)">
            <g class="typst-text" transform="scale(1, -1)">
              <use xlink:href="#g47B657D3595F769245C8427400F2CBA0" x="0" fill="#0074d9" fill-rule="nonzero"/>
            </g>
          </g>
          <g transform="translate(3.0480000000000036 205.48)">
            <g class="typst-text" transform="scale(1, -1)">
              <use xlink:href="#gF4CF4B3002C07CD385D23E166ADC01DC" x="0" fill="#ff851b" fill-rule="nonzero"/>
            </g>
          </g>
          <g transform="translate(37.04 205.48)">
            <g class="typst-text" transform="scale(1, -1)">
              <use xlink:href="#gB358AD785A4FD1B9BC1B97432B2E6B38" x="0" fill="#000000" fill-rule="nonzero"/>
            </g>
          </g>
          <g transform="translate(80.608 205.48)">
            <g class="typst-text" transform="scale(1, -1)">
              <use xlink:href="#g5ECF5F596BC9FD70F7EABEF672AD640A" x="0" fill="#000000" fill-rule="nonzero"/>
            </g>
          </g>
          <g transform="translate(128.85333333333332 117.25599999999999)">
            <g class="typst-text" transform="scale(1, -1)">
              <use xlink:href="#g595ADCFE2B9D61E3FD36A8084380BD76" x="0" fill="#ff851b" fill-rule="nonzero"/>
            </g>
          </g>
          <g transform="translate(193.95555555555555 117.25599999999999)">
            <g class="typst-text" transform="scale(1, -1)">
              <use xlink:href="#g8153DE5148E0849F17640ABEBDE4A03F" x="0" fill="#000000" fill-rule="nonzero"/>
            </g>
          </g>
          <g transform="translate(278.41777777777776 3.2559999999999905)">
            <g class="typst-group">
              <g>
                <g transform="translate(8 59.84)">
                  <g class="typst-text" transform="scale(1, -1)">
                    <use xlink:href="#g4B1EE51953CF5AF2DB85F7A39572A3E9" x="0" fill="#0074d9" fill-rule="nonzero"/>
                  </g>
                </g>
                <g transform="translate(56 59.84)">
                  <g class="typst-text" transform="scale(1, -1)">
                    <use xlink:href="#g6B2598A4F3470E7321397A698DE4F292" x="0" fill="#000000" fill-rule="nonzero"/>
                  </g>
                </g>
                <g transform="translate(87.12 59.84)">
                  <g class="typst-text" transform="scale(1, -1)">
                    <use xlink:href="#g4B1EE51953CF5AF2DB85F7A39572A3E9" x="0" fill="#0074d9" fill-rule="nonzero"/>
                  </g>
                </g>
                <g transform="translate(152.89777777777778 59.84)">
                  <g class="typst-text" transform="scale(1, -1)">
                    <use xlink:href="#gC21F78AD7ECA134D042B3F8D8C5D89F1" x="0" fill="#000000" fill-rule="nonzero"/>
                  </g>
                </g>
                <g transform="translate(232.91555555555556 59.84)">
                  <g class="typst-text" transform="scale(1, -1)">
                    <use xlink:href="#g987578146FE334D6A2742EF86E06DB41" x="0" fill="#000000" fill-rule="nonzero"/>
                  </g>
                </g>
                <g transform="translate(272.91555555555556 59.84)">
                  <g class="typst-text" transform="scale(1, -1)">
                    <use xlink:href="#gA63AB7AB427A93054DD3FF7A77C09F46" x="0" fill="#000000" fill-rule="nonzero"/>
                  </g>
                </g>
                <g transform="translate(136.01777777777778 168.88000000000002)">
                  <g class="typst-text" transform="scale(1, -1)">
                    <use xlink:href="#g132EDE9FCCCBF83BEA40C99BAA1EA888" x="0" fill="#000000" fill-rule="nonzero"/>
                  </g>
                </g>
                <g transform="translate(8 94)">
                  <path class="typst-shape" fill="#000000" d="M 0.0 -1.92 L 296.03555 -1.92 L 296.03555 1.92 L 0.0 1.92 Z"/>
                </g>
              </g>
            </g>
          </g>
        </g>
      </g>
    </g>
  </g>
</svg>
